<svg width="152" height="48" viewBox="0 0 152 48" fill="none" xmlns="http://www.w3.org/2000/svg">
<circle cx="21.5" cy="24" r="21.5" fill="#1D37AF"/>
<path d="M20.1048 31.0092C21.8654 31.0092 23.141 30.4796 23.9318 29.4202C24.7375 28.346 25.1702 26.4735 25.2299 23.8028V23.5342C25.2299 20.8486 24.8121 18.9239 23.9766 17.7602C23.156 16.5964 21.8281 16.0145 19.9929 16.0145C16.7851 16.0145 15.1812 18.5509 15.1812 23.6238C15.1812 26.0856 15.5765 27.9357 16.3673 29.174C17.173 30.3975 18.4188 31.0092 20.1048 31.0092ZM18.0234 36.4476C14.9648 36.4476 12.5627 35.3137 10.817 33.0458C9.08629 30.778 8.22092 27.6224 8.22092 23.579C8.22092 19.4312 9.12359 16.2234 10.9289 13.9555C12.7492 11.6877 15.2856 10.5537 18.5382 10.5537C20.2988 10.5537 21.746 10.8671 22.8799 11.4937C24.0288 12.1204 24.9762 13.0603 25.7222 14.3136H26.0579C26.416 12.9111 26.9158 11.7996 27.5574 10.979H33.1972C32.7197 12.4262 32.3318 14.0898 32.0334 15.9697C31.7499 17.8348 31.6082 19.5431 31.6082 21.0948V28.0774C31.6082 29.838 32.2348 30.7183 33.4881 30.7183C33.9656 30.7183 34.4057 30.6437 34.8086 30.4945V35.8657C34.5698 36.0149 34.1073 36.1492 33.421 36.2686C32.7496 36.3879 32.1901 36.4476 31.7425 36.4476C30.0714 36.4476 28.7958 36.1641 27.9155 35.5972C27.0352 35.0153 26.3414 34.0529 25.8341 32.7101H25.3641C23.7229 35.2018 21.276 36.4476 18.0234 36.4476Z" fill="#BBF41C"/>
<path d="M59.92 37.44C58.4 37.44 57.0533 37.16 55.88 36.6C54.7333 36.04 53.8267 35.28 53.16 34.32C52.52 33.3333 52.2 32.2133 52.2 30.96C52.2 29.5467 52.5733 28.4267 53.32 27.6C54.0667 26.7467 55.2667 26.1467 56.92 25.8C58.5733 25.4267 60.7733 25.24 63.52 25.24H65.04V24.68C65.04 23.72 64.7867 23.04 64.28 22.64C63.8 22.24 62.96 22.04 61.76 22.04C60.7467 22.04 59.6267 22.2 58.4 22.52C57.1733 22.84 55.9733 23.3333 54.8 24L53 19.32C53.6667 18.84 54.52 18.4133 55.56 18.04C56.6 17.6667 57.6933 17.3867 58.84 17.2C59.9867 16.9867 61.0667 16.88 62.08 16.88C65.36 16.88 67.7867 17.5867 69.36 19C70.96 20.4133 71.76 22.64 71.76 25.68V37H65.12V34.2C64.7733 35.2133 64.1467 36.0133 63.24 36.6C62.3333 37.16 61.2267 37.44 59.92 37.44ZM61.52 32.8C62.5067 32.8 63.3333 32.48 64 31.84C64.6933 31.2 65.04 30.36 65.04 29.32V28.6H63.52C61.9467 28.6 60.7867 28.7733 60.04 29.12C59.32 29.44 58.96 29.96 58.96 30.68C58.96 31.2933 59.1733 31.8 59.6 32.2C60.0533 32.6 60.6933 32.8 61.52 32.8ZM81.5744 37.44C78.8544 37.44 76.881 36.76 75.6544 35.4C74.4277 34.0133 73.8144 31.9333 73.8144 29.16V8.8H80.9344V28.92C80.9344 30.7867 81.7877 31.72 83.4944 31.72C83.761 31.72 84.0277 31.7067 84.2944 31.68C84.5877 31.6533 84.8677 31.6133 85.1344 31.56L85.0544 37C83.9877 37.2933 82.8277 37.44 81.5744 37.44ZM85.7206 44.2V17.32H92.6406V20C93.174 19.04 93.9873 18.28 95.0806 17.72C96.174 17.16 97.374 16.88 98.6806 16.88C100.361 16.88 101.841 17.2933 103.121 18.12C104.427 18.9467 105.441 20.1333 106.161 21.68C106.907 23.2 107.281 25.0267 107.281 27.16C107.281 29.2667 106.921 31.0933 106.201 32.64C105.481 34.1867 104.467 35.3733 103.161 36.2C101.881 37.0267 100.387 37.44 98.6806 37.44C97.454 37.44 96.3073 37.1867 95.2406 36.68C94.2006 36.1733 93.4006 35.4933 92.8406 34.64V44.2H85.7206ZM96.4406 32.2C97.5073 32.2 98.3873 31.8 99.0806 31C99.774 30.2 100.121 28.92 100.121 27.16C100.121 25.3733 99.774 24.0933 99.0806 23.32C98.3873 22.52 97.5073 22.12 96.4406 22.12C95.3473 22.12 94.454 22.52 93.7606 23.32C93.0673 24.0933 92.7206 25.3733 92.7206 27.16C92.7206 28.92 93.0673 30.2 93.7606 31C94.454 31.8 95.3473 32.2 96.4406 32.2ZM108.525 37V8.8H115.645V19.76C117.059 17.84 119.112 16.88 121.805 16.88C124.152 16.88 125.885 17.5733 127.005 18.96C128.152 20.3467 128.725 22.48 128.725 25.36V37H121.605V25.64C121.605 24.44 121.392 23.5867 120.965 23.08C120.565 22.5733 119.965 22.32 119.165 22.32C118.099 22.32 117.245 22.6667 116.605 23.36C115.965 24.0267 115.645 24.9333 115.645 26.08V37H108.525ZM137.623 37.44C136.103 37.44 134.756 37.16 133.583 36.6C132.436 36.04 131.53 35.28 130.863 34.32C130.223 33.3333 129.903 32.2133 129.903 30.96C129.903 29.5467 130.276 28.4267 131.023 27.6C131.77 26.7467 132.97 26.1467 134.623 25.8C136.276 25.4267 138.476 25.24 141.223 25.24H142.743V24.68C142.743 23.72 142.49 23.04 141.983 22.64C141.503 22.24 140.663 22.04 139.463 22.04C138.45 22.04 137.33 22.2 136.103 22.52C134.876 22.84 133.676 23.3333 132.503 24L130.703 19.32C131.37 18.84 132.223 18.4133 133.263 18.04C134.303 17.6667 135.396 17.3867 136.543 17.2C137.69 16.9867 138.77 16.88 139.783 16.88C143.063 16.88 145.49 17.5867 147.063 19C148.663 20.4133 149.463 22.64 149.463 25.68V37H142.823V34.2C142.476 35.2133 141.85 36.0133 140.943 36.6C140.036 37.16 138.93 37.44 137.623 37.44ZM139.223 32.8C140.21 32.8 141.036 32.48 141.703 31.84C142.396 31.2 142.743 30.36 142.743 29.32V28.6H141.223C139.65 28.6 138.49 28.7733 137.743 29.12C137.023 29.44 136.663 29.96 136.663 30.68C136.663 31.2933 136.876 31.8 137.303 32.2C137.756 32.6 138.396 32.8 139.223 32.8Z" fill="#1D37AF"/>
</svg>
